<svg width="100%" height="100%" viewBox="0 0 20 20" fill="none" xmlns="http://www.w3.org/2000/svg">
<path d="M0.832031 18.3335H19.1654" stroke="currentColor" stroke-width="1.5" stroke-miterlimit="10" stroke-linecap="round" stroke-linejoin="round"/>
<path d="M16.4844 18.3417V14.625" stroke="currentColor" stroke-width="1.5" stroke-miterlimit="10" stroke-linecap="round" stroke-linejoin="round"/>
<path d="M16.5013 9.0752C15.4846 9.0752 14.668 9.89187 14.668 10.9085V12.8002C14.668 13.8168 15.4846 14.6335 16.5013 14.6335C17.518 14.6335 18.3347 13.8168 18.3347 12.8002V10.9085C18.3347 9.89187 17.518 9.0752 16.5013 9.0752Z" stroke="currentColor" stroke-width="1.5" stroke-miterlimit="10" stroke-linecap="round" stroke-linejoin="round"/>
<path d="M1.75 18.3333V5.02498C1.75 3.34998 2.58338 2.5083 4.24171 2.5083H9.43336C11.0917 2.5083 11.9167 3.34998 11.9167 5.02498V18.3333" stroke="currentColor" stroke-width="1.5" stroke-miterlimit="10" stroke-linecap="round" stroke-linejoin="round"/>
<path d="M4.83203 6.875H8.95704" stroke="currentColor" stroke-width="1.5" stroke-miterlimit="10" stroke-linecap="round" stroke-linejoin="round"/>
<path d="M4.83203 10H8.95704" stroke="currentColor" stroke-width="1.5" stroke-miterlimit="10" stroke-linecap="round" stroke-linejoin="round"/>
<path d="M6.875 18.3335V15.2085" stroke="currentColor" stroke-width="1.5" stroke-miterlimit="10" stroke-linecap="round" stroke-linejoin="round"/>
</svg>
