<svg width="100%" height="100%" viewBox="0 0 20 21" fill="none" xmlns="http://www.w3.org/2000/svg">
<path d="M19.5308 18.9708C19.6045 19.0395 19.6636 19.1223 19.7046 19.2143C19.7456 19.3063 19.7676 19.4056 19.7694 19.5063C19.7712 19.607 19.7527 19.707 19.7149 19.8004C19.6772 19.8938 19.6211 19.9786 19.5499 20.0499C19.4786 20.1211 19.3938 20.1772 19.3004 20.2149C19.207 20.2527 19.107 20.2712 19.0063 20.2694C18.9056 20.2676 18.8063 20.2456 18.7143 20.2046C18.6223 20.1636 18.5395 20.1045 18.4708 20.0308L10.0008 11.5621L1.53082 20.0308C1.38865 20.1633 1.2006 20.2354 1.0063 20.232C0.811999 20.2286 0.626614 20.1499 0.489201 20.0124C0.351788 19.875 0.273076 19.6896 0.269648 19.4953C0.26622 19.301 0.338343 19.113 0.470823 18.9708L8.93957 10.5008L0.470823 2.03082C0.338343 1.88865 0.26622 1.7006 0.269648 1.5063C0.273076 1.312 0.351788 1.12661 0.489201 0.989201C0.626614 0.851788 0.811999 0.773076 1.0063 0.769648C1.2006 0.76622 1.38865 0.838343 1.53082 0.970823L10.0008 9.43957L18.4708 0.970823C18.613 0.838343 18.801 0.76622 18.9953 0.769648C19.1896 0.773076 19.375 0.851788 19.5124 0.989201C19.6499 1.12661 19.7286 1.312 19.732 1.5063C19.7354 1.7006 19.6633 1.88865 19.5308 2.03082L11.0621 10.5008L19.5308 18.9708Z" fill="currentColor"/>
</svg>
