<svg width="100%" height="100%" viewBox="0 0 32 32" fill="none" xmlns="http://www.w3.org/2000/svg">
<path d="M8.44484 23.5559V12.9782M29.6004 9.95595V22.0448C29.6004 24.0487 28.8044 25.9705 27.3874 27.3874C25.9705 28.8044 24.0487 29.6004 22.0448 29.6004H9.95595C7.95209 29.6004 6.0303 28.8044 4.61336 27.3874C3.19642 25.9705 2.40039 24.0487 2.40039 22.0448V9.95595C2.40039 7.95209 3.19642 6.0303 4.61336 4.61336C6.0303 3.19642 7.95209 2.40039 9.95595 2.40039H22.0448C24.0487 2.40039 25.9705 3.19642 27.3874 4.61336C28.8044 6.0303 29.6004 7.95209 29.6004 9.95595Z" stroke="currentColor" stroke-width="1.59375" stroke-linecap="round" stroke-linejoin="round"/>
<path d="M14.4898 23.556V18.6449M14.4898 18.6449V12.9782M14.4898 18.6449C14.4898 12.9782 23.5564 12.9782 23.5564 18.6449V23.556M8.44531 8.45998L8.46042 8.44336" stroke="currentColor" stroke-width="1.59375" stroke-linecap="round" stroke-linejoin="round"/>
</svg>
