<svg width="100%" height="100%" viewBox="0 0 24 24" fill="none" xmlns="http://www.w3.org/2000/svg">
<path d="M0.500488 1.97555C0.500488 1.06619 1.26179 0.328064 2.20026 0.328064H21.7997C22.7386 0.328064 23.4995 1.06619 23.4995 1.97555V21.6799C23.4995 22.5895 22.7386 23.3271 21.7997 23.3271H2.20026C1.26188 23.3271 0.500488 22.5896 0.500488 21.6801V1.97528V1.97555Z" fill="white"/>
<path d="M7.48966 19.575V9.2208H4.04807V19.575H7.49002H7.48966ZM5.76959 7.80735C6.96949 7.80735 7.71651 7.01227 7.71651 6.01864C7.69405 5.00237 6.96949 4.22948 5.79241 4.22948C4.61451 4.22948 3.84521 5.00237 3.84521 6.01855C3.84521 7.01218 4.59196 7.80726 5.74704 7.80726H5.76932L5.76959 7.80735ZM9.39463 19.575H12.8359V13.7934C12.8359 13.4843 12.8584 13.1745 12.9493 12.9537C13.198 12.3352 13.7643 11.6949 14.7152 11.6949C15.9602 11.6949 16.4586 12.6443 16.4586 14.0364V19.575H19.8998V13.6382C19.8998 10.458 18.2022 8.97806 15.9379 8.97806C14.0816 8.97806 13.2663 10.0156 12.8133 10.7223H12.8362V9.22116H9.39481C9.43973 10.1925 9.39454 19.5754 9.39454 19.5754L9.39463 19.575Z" fill="currentColor"/>
</svg>
