<svg width="100%" height="100%" viewBox="0 0 174 36" fill="none" xmlns="http://www.w3.org/2000/svg">
<path d="M38.3622 0.692383H10.9606C4.90724 0.692383 0 5.65169 0 11.7693V24.2308C0 30.3485 4.90724 35.3078 10.9606 35.3078H38.3622C44.4156 35.3078 49.3228 30.3485 49.3228 24.2308V11.7693C49.3228 5.65169 44.4156 0.692383 38.3622 0.692383Z" fill="#FDD503"/>
<path d="M24.6539 6.23096C20.4943 6.23096 17.126 9.64265 17.126 13.8463C17.126 18.05 20.4943 21.4617 24.6539 21.4617C28.821 21.4617 32.1968 18.05 32.1968 13.8463C32.1968 9.64265 28.821 6.23096 24.6539 6.23096ZM27.8489 18.4156L24.6614 16.4736L21.4739 18.4156L22.3179 14.7526L19.5072 12.2928L23.2146 11.973L24.6614 8.51557L26.1082 11.9653L29.8156 12.2852L27.0049 14.745L27.8489 18.4156Z" fill="currentColor"/>
<path d="M10.9609 28.6821L12.6543 29.7694L12.2049 27.7202L13.701 26.3414L11.7308 26.1636L10.9609 24.231L10.1909 26.1636L8.2207 26.3414L9.71683 27.7202L9.26744 29.7694L10.9609 28.6821Z" fill="currentColor"/>
<path d="M17.811 28.6821L19.5044 29.7694L19.055 27.7202L20.5511 26.3414L18.5809 26.1636L17.811 24.231L17.041 26.1636L15.0708 26.3414L16.5669 27.7202L16.1175 29.7694L17.811 28.6821Z" fill="currentColor"/>
<path d="M24.6615 28.6821L26.355 29.7694L25.9056 27.7202L27.4017 26.3414L25.4315 26.1636L24.6615 24.231L23.8916 26.1636L21.9214 26.3414L23.4175 27.7202L22.9681 29.7694L24.6615 28.6821Z" fill="currentColor"/>
<path d="M31.5116 28.6821L33.2051 29.7694L32.7557 27.7202L34.2518 26.3414L32.2816 26.1636L31.5116 24.231L30.7417 26.1636L28.7715 26.3414L30.2676 27.7202L29.8182 29.7694L31.5116 28.6821Z" fill="currentColor"/>
<path d="M38.3622 28.6821L40.0556 29.7694L39.6063 27.7202L41.1024 26.3414L39.1322 26.1636L38.3622 24.231L37.5922 26.1636L35.6221 26.3414L37.1182 27.7202L36.6688 29.7694L38.3622 28.6821Z" fill="currentColor"/>
<path d="M57.9393 14.8631V29.077H54.0698V11.5205H57.7627L57.9393 14.8631ZM63.2537 11.407L63.2215 15.0416C62.9862 14.9983 62.7293 14.9659 62.4509 14.9443C62.1833 14.9225 61.9157 14.9117 61.6481 14.9117C60.9845 14.9117 60.4011 15.0091 59.8981 15.2039C59.395 15.3878 58.9722 15.6582 58.6297 16.0151C58.2979 16.3613 58.041 16.7832 57.859 17.2808C57.6771 17.7783 57.57 18.3355 57.5379 18.952L56.6549 19.017C56.6549 17.9136 56.7619 16.8913 56.9759 15.9502C57.19 15.0091 57.5112 14.1816 57.9393 13.4677C58.3782 12.7537 58.924 12.1966 59.577 11.7964C60.2407 11.3961 61.0058 11.196 61.873 11.196C62.1083 11.196 62.3599 11.2177 62.6275 11.2609C62.9059 11.3042 63.1145 11.3529 63.2537 11.407ZM71.0426 29.4016C69.7582 29.4016 68.5968 29.1906 67.5585 28.7687C66.531 28.336 65.6533 27.7356 64.9254 26.9677C64.2083 26.1997 63.6569 25.2963 63.2717 24.2579C62.8863 23.2194 62.6936 22.0998 62.6936 20.8992V20.2501C62.6936 18.8763 62.8916 17.6324 63.2877 16.5182C63.6838 15.404 64.235 14.452 64.9414 13.6624C65.6479 12.8619 66.4827 12.2507 67.4462 11.8288C68.4095 11.407 69.4531 11.196 70.5769 11.196C71.8186 11.196 72.905 11.407 73.8362 11.8288C74.7675 12.2507 75.5381 12.8457 76.1482 13.6137C76.7691 14.3709 77.2294 15.2741 77.529 16.3235C77.8395 17.3727 77.9947 18.5301 77.9947 19.7958V21.467H64.5722V18.66H74.1734V18.3517C74.152 17.6486 74.0128 16.9886 73.7559 16.3721C73.5097 15.7555 73.1298 15.2579 72.616 14.8793C72.1022 14.5008 71.4172 14.3114 70.5609 14.3114C69.9188 14.3114 69.3461 14.452 68.843 14.7332C68.3506 15.0037 67.9384 15.3986 67.6067 15.9178C67.2749 16.437 67.018 17.0644 66.8361 17.8C66.6648 18.5247 66.5792 19.3415 66.5792 20.2501V20.8992C66.5792 21.6671 66.6808 22.3812 66.8842 23.0409C67.0983 23.6901 67.4086 24.2579 67.8154 24.7447C68.2222 25.2315 68.7145 25.6155 69.2925 25.8967C69.8705 26.1671 70.5288 26.3024 71.2673 26.3024C72.1986 26.3024 73.0281 26.1131 73.7559 25.7344C74.4839 25.3559 75.1153 24.8204 75.6505 24.1281L77.6896 26.1239C77.315 26.6756 76.8279 27.2056 76.2285 27.714C75.6291 28.2116 74.896 28.6173 74.029 28.931C73.1727 29.2447 72.1772 29.4016 71.0426 29.4016ZM84.4669 25.9778L88.7217 11.5205H92.7356L86.6988 29.077H84.194L84.4669 25.9778ZM81.2077 11.5205L85.5427 26.0428L85.7514 29.077H83.2467L77.1777 11.5205H81.2077ZM97.2973 11.5205V29.077H93.4119V11.5205H97.2973ZM93.155 6.91237C93.155 6.31742 93.3476 5.82523 93.733 5.4358C94.129 5.03557 94.675 4.83545 95.3707 4.83545C96.0558 4.83545 96.5962 5.03557 96.9923 5.4358C97.3883 5.82523 97.5864 6.31742 97.5864 6.91237C97.5864 7.4965 97.3883 7.98328 96.9923 8.37271C96.5962 8.76212 96.0558 8.95684 95.3707 8.95684C94.675 8.95684 94.129 8.76212 93.733 8.37271C93.3476 7.98328 93.155 7.4965 93.155 6.91237ZM107.222 29.4016C105.937 29.4016 104.776 29.1906 103.738 28.7687C102.71 28.336 101.832 27.7356 101.104 26.9677C100.387 26.1997 99.8361 25.2963 99.4508 24.2579C99.0654 23.2194 98.8728 22.0998 98.8728 20.8992V20.2501C98.8728 18.8763 99.0707 17.6324 99.4668 16.5182C99.8628 15.404 100.414 14.452 101.121 13.6624C101.827 12.8619 102.662 12.2507 103.625 11.8288C104.589 11.407 105.632 11.196 106.756 11.196C107.998 11.196 109.084 11.407 110.015 11.8288C110.947 12.2507 111.717 12.8457 112.327 13.6137C112.948 14.3709 113.408 15.2741 113.708 16.3235C114.019 17.3727 114.174 18.5301 114.174 19.7958V21.467H100.751V18.66H110.353V18.3517C110.331 17.6486 110.192 16.9886 109.935 16.3721C109.689 15.7555 109.309 15.2579 108.795 14.8793C108.281 14.5008 107.596 14.3114 106.74 14.3114C106.098 14.3114 105.525 14.452 105.022 14.7332C104.53 15.0037 104.118 15.3986 103.786 15.9178C103.454 16.437 103.197 17.0644 103.015 17.8C102.844 18.5247 102.758 19.3415 102.758 20.2501V20.8992C102.758 21.6671 102.86 22.3812 103.063 23.0409C103.277 23.6901 103.588 24.2579 103.995 24.7447C104.401 25.2315 104.894 25.6155 105.472 25.8967C106.05 26.1671 106.708 26.3024 107.446 26.3024C108.378 26.3024 109.207 26.1131 109.935 25.7344C110.663 25.3559 111.294 24.8204 111.83 24.1281L113.869 26.1239C113.494 26.6756 113.007 27.2056 112.408 27.714C111.808 28.2116 111.075 28.6173 110.208 28.931C109.352 29.2447 108.356 29.4016 107.222 29.4016ZM119.94 25.1828L123.954 11.5205H126.426L125.752 15.6094L121.706 29.077H119.49L119.94 25.1828ZM117.579 11.5205L120.71 25.2477L120.967 29.077H118.495L113.79 11.5205H117.579ZM130.183 25.0855L133.218 11.5205H136.991L132.302 29.077H129.83L130.183 25.0855ZM126.843 11.5205L130.809 25.0205L131.307 29.077H129.091L124.997 15.5932L124.323 11.5205H126.843ZM153.338 25.8481V29.077H140.926V25.8481H153.338ZM142.066 5.45203V29.077H138.037V5.45203H142.066ZM151.716 15.3174V18.4977H140.926V15.3174H151.716ZM153.257 5.45203V8.69722H140.926V5.45203H153.257ZM161.447 29.077H156.453L156.486 25.8481H161.447C162.893 25.8481 164.101 25.529 165.075 24.8908C166.06 24.2525 166.799 23.3385 167.292 22.1486C167.795 20.9586 168.046 19.5416 168.046 17.8974V16.6155C168.046 15.339 167.902 14.2086 167.613 13.2243C167.335 12.2399 166.917 11.4124 166.36 10.7417C165.814 10.071 165.14 9.56261 164.337 9.21646C163.545 8.8703 162.63 8.69722 161.591 8.69722H156.357V5.45203H161.591C163.143 5.45203 164.561 5.71706 165.847 6.24711C167.13 6.76634 168.239 7.51814 169.17 8.50251C170.112 9.48689 170.835 10.666 171.338 12.0398C171.841 13.4136 172.091 14.9497 172.091 16.6479V17.8974C172.091 19.5956 171.841 21.1317 171.338 22.5055C170.835 23.8793 170.112 25.0585 169.17 26.0428C168.228 27.0163 167.104 27.7682 165.799 28.2982C164.503 28.8174 163.053 29.077 161.447 29.077ZM158.685 5.45203V29.077H154.656V5.45203H158.685Z" fill="currentColor"/>
</svg>
