<svg width="24" height="24" viewBox="0 0 24 24" fill="none" xmlns="http://www.w3.org/2000/svg">
  <path d="M5 10.0005C3.9 10.0005 3 10.9005 3 12.0005C3 13.1005 3.9 14.0005 5 14.0005C6.1 14.0005 7 13.1005 7 12.0005C7 10.9005 6.1 10.0005 5 10.0005Z" fill="#71717A" stroke="#71717A" stroke-width="1.5" />
  <path d="M19 10.0005C17.9 10.0005 17 10.9005 17 12.0005C17 13.1005 17.9 14.0005 19 14.0005C20.1 14.0005 21 13.1005 21 12.0005C21 10.9005 20.1 10.0005 19 10.0005Z" fill="#71717A" stroke="#71717A" stroke-width="1.5" />
  <path d="M12 10.0005C10.9 10.0005 10 10.9005 10 12.0005C10 13.1005 10.9 14.0005 12 14.0005C13.1 14.0005 14 13.1005 14 12.0005C14 10.9005 13.1 10.0005 12 10.0005Z" fill="#71717A" stroke="#71717A" stroke-width="1.5" />
</svg>