<svg width="132" height="121" viewBox="0 0 132 121" fill="none" xmlns="http://www.w3.org/2000/svg">
<g clip-path="url(#clip0_788_14980)">
<path d="M66.1792 94.8301C66.7205 94.8301 67.1592 94.3914 67.1592 93.8501C67.1592 93.3089 66.7205 92.8701 66.1792 92.8701C65.638 92.8701 65.1992 93.3089 65.1992 93.8501C65.1992 94.3914 65.638 94.8301 66.1792 94.8301Z" fill="#CFCFCF"/>
<path d="M37.7109 21.0498V25.3498" stroke="#BABABA" stroke-linecap="round" stroke-linejoin="round"/>
<path d="M35.5508 23.2002H39.8608" stroke="#BABABA" stroke-linecap="round" stroke-linejoin="round"/>
<path d="M86.6602 48.1698C78.2902 48.1698 69.7702 47.8298 61.8002 45.6098C53.9802 43.4398 46.8002 39.2298 40.4002 34.3598C36.2102 31.1898 32.4002 28.6598 26.9602 29.0398C21.6382 29.3278 16.549 31.3151 12.4402 34.7098C5.52019 40.7698 6.56019 51.9998 9.33019 59.8598C13.4902 71.7298 26.1502 79.9998 36.9102 85.3498C49.3402 91.5598 63.0002 95.1698 76.6902 97.2398C88.6902 99.0698 104.11 100.39 114.51 92.5598C124.06 85.3498 126.68 68.9098 124.34 57.8098C123.772 54.5307 122.026 51.5719 119.43 49.4898C112.72 44.5798 102.71 47.8598 95.1702 48.0198C92.3702 48.0798 89.5202 48.1498 86.6602 48.1698Z" fill="#F2F2F2"/>
<path d="M73.1206 15.1905C73.6619 15.1905 74.1006 14.7517 74.1006 14.2105C74.1006 13.6692 73.6619 13.2305 73.1206 13.2305C72.5794 13.2305 72.1406 13.6692 72.1406 14.2105C72.1406 14.7517 72.5794 15.1905 73.1206 15.1905Z" fill="#CFCFCF"/>
<path d="M22.1992 91.5V95.8" stroke="#BABABA" stroke-linecap="round" stroke-linejoin="round"/>
<path d="M20.0508 93.6504H24.3508" stroke="#BABABA" stroke-linecap="round" stroke-linejoin="round"/>
<path d="M66.5791 116.7C86.8535 116.7 103.289 115.675 103.289 114.41C103.289 113.145 86.8535 112.12 66.5791 112.12C46.3048 112.12 29.8691 113.145 29.8691 114.41C29.8691 115.675 46.3048 116.7 66.5791 116.7Z" fill="#F2F2F2"/>
<path d="M96.0899 89.8796H32.6799C32.2555 89.8793 31.8363 89.7868 31.4512 89.6086C31.0661 89.4303 30.7243 89.1706 30.4495 88.8472C30.1746 88.5239 29.9733 88.1447 29.8594 87.7359C29.7456 87.3271 29.7218 86.8985 29.7899 86.4796L37.8999 37.2996C38.0095 36.6152 38.3598 35.9923 38.8878 35.5431C39.4157 35.094 40.0867 34.848 40.7799 34.8496H104.19C104.614 34.8497 105.033 34.9421 105.418 35.1204C105.802 35.2987 106.144 35.5587 106.418 35.8823C106.692 36.2059 106.892 36.5852 107.005 36.9941C107.117 37.4029 107.14 37.8313 107.07 38.2496L98.9999 87.4296C98.8876 88.1183 98.5324 88.7441 97.9986 89.1935C97.4648 89.6429 96.7877 89.8863 96.0899 89.8796Z" fill="#D2D2D2"/>
<path d="M96.8703 33.5634L59.2315 16.7583C58.1221 16.2629 56.8211 16.7607 56.3257 17.8702L44.3966 44.5881C43.9013 45.6975 44.3991 46.9985 45.5086 47.4938L83.1473 64.299C84.2568 64.7943 85.5578 64.2965 86.0531 63.187L97.9822 36.4692C98.4776 35.3597 97.9798 34.0587 96.8703 33.5634Z" fill="white" stroke="#BABABA" stroke-linecap="round" stroke-linejoin="round"/>
<path d="M64.75 38.74C65.7407 37.3499 67.1816 36.345 68.8285 35.8957C70.4754 35.4464 72.2269 35.5803 73.7864 36.2747C75.3458 36.9691 76.6172 38.1813 77.3852 39.7058C78.1531 41.2304 78.3703 42.9736 78 44.64" stroke="#BABABA" stroke-width="0.68" stroke-linecap="round" stroke-linejoin="round"/>
<path d="M82.7487 37.2299C83.3176 37.2299 83.7787 36.7688 83.7787 36.1999C83.7787 35.6311 83.3176 35.1699 82.7487 35.1699C82.1799 35.1699 81.7188 35.6311 81.7188 36.1999C81.7188 36.7688 82.1799 37.2299 82.7487 37.2299Z" fill="#BABABA"/>
<path d="M67.8308 30.5698C68.3996 30.5698 68.8608 30.1086 68.8608 29.5398C68.8608 28.9709 68.3996 28.5098 67.8308 28.5098C67.2619 28.5098 66.8008 28.9709 66.8008 29.5398C66.8008 30.1086 67.2619 30.5698 67.8308 30.5698Z" fill="#BABABA"/>
<path d="M95.8108 89.86H32.0908C31.3154 89.8574 30.5727 89.5475 30.0254 88.9983C29.4781 88.4491 29.1708 87.7054 29.1708 86.93V42C29.1614 41.6102 29.23 41.2225 29.3725 40.8596C29.5149 40.4966 29.7283 40.1657 30.0003 39.8863C30.2722 39.607 30.5972 39.3846 30.9562 39.2324C31.3151 39.0802 31.7009 39.0012 32.0908 39H55.3008C55.8393 39.002 56.3669 39.1524 56.8256 39.4346C57.2843 39.7169 57.6563 40.1201 57.9008 40.6L61.2108 47.08C61.4543 47.5606 61.8261 47.9645 62.285 48.2468C62.7439 48.5292 63.2719 48.6791 63.8108 48.68H95.8108C96.5852 48.68 97.3279 48.9876 97.8755 49.5352C98.4231 50.0829 98.7308 50.8256 98.7308 51.6V86.93C98.7308 87.7054 98.4234 88.4491 97.8761 88.9983C97.3288 89.5475 96.5861 89.8574 95.8108 89.86Z" fill="white" stroke="#BABABA" stroke-linecap="round" stroke-linejoin="round"/>
<path d="M86.0009 50.21C82.3197 50.208 78.7207 51.2978 75.659 53.3415C72.5973 55.3851 70.2104 58.2909 68.8003 61.6913C67.3903 65.0917 67.0203 68.8338 67.7372 72.4445C68.4542 76.0551 70.2258 79.372 72.8281 81.9757C75.4303 84.5793 78.7463 86.3528 82.3566 87.0716C85.9668 87.7905 89.7092 87.4226 93.1103 86.0143C96.5114 84.6061 99.4185 82.2208 101.464 79.1602C103.509 76.0996 104.601 72.5011 104.601 68.82C104.601 63.886 102.642 59.154 99.1537 55.6642C95.6658 52.1745 90.9348 50.2126 86.0009 50.21Z" fill="white" stroke="#BABABA" stroke-linecap="round" stroke-linejoin="round"/>
<path d="M99.2402 82.3203L104.2 87.2803" stroke="#BABABA" stroke-linecap="round" stroke-linejoin="round"/>
<path d="M103.639 84.8697L102.098 86.4817C101.408 87.2043 101.433 88.35 102.156 89.0408L115.529 101.824C116.251 102.515 117.397 102.489 118.088 101.767L119.629 100.155C120.319 99.4323 120.294 98.2865 119.571 97.5958L106.198 84.8121C105.476 84.1214 104.33 84.1472 103.639 84.8697Z" fill="#D2D2D2"/>
<path d="M113.539 14.21V18.52" stroke="#BABABA" stroke-linecap="round" stroke-linejoin="round"/>
<path d="M111.381 16.3701H115.691" stroke="#BABABA" stroke-linecap="round" stroke-linejoin="round"/>
</g>
<defs>
<clipPath id="clip0_788_14980">
<rect width="132" height="121" fill="white"/>
</clipPath>
</defs>
</svg>
