<svg width="100%" height="100%" viewBox="0 0 18 20" fill="none" xmlns="http://www.w3.org/2000/svg">
<path fill-rule="evenodd" clip-rule="evenodd" d="M10.803 3.33301C10.803 1.49301 12.303 1.21465e-05 14.151 1.21465e-05C14.5898 -0.00117117 15.0245 0.0841155 15.4303 0.250999C15.8361 0.417882 16.2051 0.663091 16.5161 0.972615C16.8271 1.28214 17.0741 1.64991 17.2429 2.05492C17.4117 2.45992 17.4991 2.89423 17.5 3.33301C17.5 5.17401 16 6.66701 14.151 6.66701C13.7076 6.66734 13.2686 6.57964 12.8593 6.40901C12.4501 6.23838 12.0788 5.98822 11.767 5.67301L7.132 8.82901C7.26085 9.47202 7.19755 10.1387 6.95 10.746L12.032 14.086C12.6307 13.5981 13.3797 13.3321 14.152 13.333C14.5908 13.332 15.0255 13.4174 15.4312 13.5844C15.837 13.7514 16.2059 13.9967 16.5168 14.3063C16.8277 14.6159 17.0746 14.9838 17.2433 15.3888C17.412 15.7939 17.4992 16.2282 17.5 16.667C17.5 18.507 16 20 14.151 20C13.7123 20.0011 13.2777 19.9157 12.872 19.7487C12.4663 19.5818 12.0975 19.3366 11.7866 19.0271C11.4757 18.7175 11.2288 18.3498 11.06 17.9449C10.8913 17.5399 10.8039 17.1057 10.803 16.667C10.8022 16.1996 10.9007 15.7374 11.092 15.311L6.05 12C5.43922 12.5306 4.65706 12.8222 3.848 12.821C3.40922 12.8221 2.97453 12.7366 2.56877 12.5696C2.16301 12.4026 1.79413 12.1573 1.48321 11.8477C1.17229 11.5381 0.925431 11.1702 0.756728 10.7652C0.588024 10.3601 0.500787 9.9258 0.5 9.48701C0.500918 9.04831 0.588253 8.61409 0.757015 8.20915C0.925777 7.80421 1.17266 7.43648 1.48356 7.12697C1.79447 6.81746 2.1633 6.57223 2.569 6.40529C2.97469 6.23834 3.4093 6.15296 3.848 6.15401C4.912 6.15401 5.858 6.64701 6.471 7.41501L10.964 4.35601C10.8568 4.02561 10.8025 3.68036 10.803 3.33301Z" fill="currentColor"/>
</svg>
