<svg width="18" height="20" viewBox="0 0 18 20" fill="none" xmlns="http://www.w3.org/2000/svg">
  <path fill-rule="evenodd" clip-rule="evenodd" d="M10.803 3.3335C10.803 1.4935 12.303 0.000500428 14.151 0.000500428C14.5898 -0.000682887 15.0245 0.0846038 15.4303 0.251487C15.8361 0.41837 16.2051 0.663579 16.5161 0.973103C16.8271 1.28263 17.0741 1.6504 17.2429 2.05541C17.4117 2.46041 17.4991 2.89472 17.5 3.3335C17.5 5.1745 16 6.6675 14.151 6.6675C13.7076 6.66782 13.2686 6.58013 12.8593 6.4095C12.4501 6.23887 12.0788 5.9887 11.767 5.6735L7.132 8.8295C7.26085 9.47251 7.19755 10.1392 6.95 10.7465L12.032 14.0865C12.6307 13.5986 13.3797 13.3326 14.152 13.3335C14.5908 13.3324 15.0255 13.4179 15.4312 13.5849C15.837 13.7519 16.2059 13.9972 16.5168 14.3068C16.8277 14.6164 17.0746 14.9843 17.2433 15.3893C17.412 15.7944 17.4992 16.2287 17.5 16.6675C17.5 18.5075 16 20.0005 14.151 20.0005C13.7123 20.0016 13.2777 19.9162 12.872 19.7492C12.4663 19.5823 12.0975 19.3371 11.7866 19.0275C11.4757 18.718 11.2288 18.3503 11.06 17.9454C10.8913 17.5404 10.8039 17.1062 10.803 16.6675C10.8022 16.2001 10.9007 15.7379 11.092 15.3115L6.05 12.0005C5.43922 12.5311 4.65706 12.8227 3.848 12.8215C3.40922 12.8226 2.97453 12.7371 2.56877 12.5701C2.16301 12.4031 1.79413 12.1578 1.48321 11.8482C1.17229 11.5386 0.925431 11.1707 0.756728 10.7657C0.588024 10.3606 0.500787 9.92628 0.5 9.4875C0.500918 9.0488 0.588253 8.61458 0.757015 8.20964C0.925777 7.8047 1.17266 7.43697 1.48356 7.12746C1.79447 6.81795 2.1633 6.57272 2.569 6.40577C2.97469 6.23883 3.4093 6.15345 3.848 6.1545C4.912 6.1545 5.858 6.6475 6.471 7.4155L10.964 4.3565C10.8568 4.0261 10.8025 3.68085 10.803 3.3335Z" fill="#09090B" />
</svg>