<svg width="20" height="20" viewBox="0 0 20 20" fill="none" xmlns="http://www.w3.org/2000/svg">
<path d="M6.99995 8C7.7956 8 8.55866 7.68393 9.12127 7.12132C9.68388 6.55871 9.99995 5.79565 9.99995 5C9.99995 4.20435 9.68388 3.44129 9.12127 2.87868C8.55866 2.31607 7.7956 2 6.99995 2C6.2043 2 5.44124 2.31607 4.87863 2.87868C4.31602 3.44129 3.99995 4.20435 3.99995 5C3.99995 5.79565 4.31602 6.55871 4.87863 7.12132C5.44124 7.68393 6.2043 8 6.99995 8ZM14.4999 9C15.163 9 15.7989 8.73661 16.2677 8.26777C16.7366 7.79893 16.9999 7.16304 16.9999 6.5C16.9999 5.83696 16.7366 5.20107 16.2677 4.73223C15.7989 4.26339 15.163 4 14.4999 4C13.8369 4 13.201 4.26339 12.7322 4.73223C12.2633 5.20107 11.9999 5.83696 11.9999 6.5C11.9999 7.16304 12.2633 7.79893 12.7322 8.26777C13.201 8.73661 13.8369 9 14.4999 9ZM1.61495 16.428C1.41855 16.3062 1.26079 16.131 1.16006 15.923C1.05932 15.715 1.01975 15.4826 1.04595 15.253C1.23031 13.8041 1.9367 12.4721 3.03276 11.5066C4.12882 10.5412 5.53932 10.0086 6.99995 10.0086C8.46058 10.0086 9.87108 10.5412 10.9671 11.5066C12.0632 12.4721 12.7696 13.8041 12.9539 15.253C13.0119 15.72 12.7819 16.173 12.3839 16.427C10.7773 17.4568 8.90833 18.0028 6.99995 18C5.09133 18.0033 3.22203 17.4576 1.61495 16.428ZM14.4999 16H14.3939C14.4639 15.703 14.4819 15.389 14.4419 15.067C14.271 13.6923 13.7212 12.3922 12.8539 11.312C13.412 11.0921 14.0085 10.986 14.6082 10.9999C15.2079 11.0139 15.7987 11.1476 16.346 11.3932C16.8933 11.6388 17.3859 11.9913 17.795 12.43C18.204 12.8688 18.5212 13.3849 18.7279 13.948C18.7911 14.1277 18.7898 14.3239 18.7241 14.5027C18.6584 14.6815 18.5325 14.8319 18.3679 14.928C17.2006 15.6315 15.8629 16.0022 14.4999 16Z" fill="#0A66C2"/>
</svg>
