<svg width="100%" height="100%" viewBox="0 0 32 32" fill="none" xmlns="http://www.w3.org/2000/svg">
<path d="M7.33325 2.66699H5.46659C4.13325 2.66699 3.46659 4.13366 4.39992 5.06699L11.9999 12.667C14.1333 14.8003 17.7333 14.8003 19.8666 12.667L27.4666 5.06699C28.5333 4.13366 27.8666 2.66699 26.5333 2.66699H24.6666C23.5999 2.66699 22.5333 3.06699 21.7333 3.86699L16.9333 8.66699C16.3999 9.20033 15.4666 9.20033 14.9333 8.66699L10.2666 3.86699C9.46659 3.06699 8.39992 2.66699 7.33325 2.66699Z" stroke="currentColor" stroke-width="1.5" stroke-miterlimit="10" stroke-linecap="round" stroke-linejoin="round"/>
<path d="M7.33339 29.3334H5.46672C4.26672 29.3334 3.60006 27.8667 4.53339 26.9334L12.0001 19.3334C14.1334 17.2001 17.7334 17.2001 19.8667 19.3334L27.4667 26.9334C28.4001 27.8667 27.7334 29.3334 26.5334 29.3334H24.6667C23.6001 29.3334 22.5334 28.9334 21.7334 28.1334L16.9334 23.3334C16.4001 22.8001 15.4667 22.8001 14.9334 23.3334L10.1334 28.1334C9.46672 28.8001 8.40005 29.3334 7.33339 29.3334Z" stroke="currentColor" stroke-width="1.5" stroke-miterlimit="10" stroke-linecap="round" stroke-linejoin="round"/>
</svg>
